<svg id="visual" viewBox="0 0 900 600" width="900" height="600" xmlns="http://www.w3.org/2000/svg"
    xmlns:xlink="http://www.w3.org/1999/xlink" version="1.1">
    <g stroke-width="1" stroke-linejoin="bevel">
        <path d="M432 314L351 310L418 339Z" fill="#fafafa" stroke="#fafafa"></path>
        <path d="M351 310L374 364L418 339Z" fill="#e7e7e7" stroke="#e7e7e7"></path>
        <path d="M432 314L344 243L351 310Z" fill="#e5e5e5" stroke="#e5e5e5"></path>
        <path d="M344 243L313 286L351 310Z" fill="#e9e9e9" stroke="#e9e9e9"></path>
        <path d="M351 310L299 349L374 364Z" fill="#f8f8f8" stroke="#f8f8f8"></path>
        <path d="M494 370L475 305L432 314Z" fill="#ededed" stroke="#ededed"></path>
        <path d="M432 314L426 222L344 243Z" fill="#e7e7e7" stroke="#e7e7e7"></path>
        <path d="M480 238L426 222L432 314Z" fill="#f3f3f3" stroke="#f3f3f3"></path>
        <path d="M374 364L430 400L418 339Z" fill="#ededed" stroke="#ededed"></path>
        <path d="M418 339L494 370L432 314Z" fill="#e9e9e9" stroke="#e9e9e9"></path>
        <path d="M313 286L299 349L351 310Z" fill="#e7e7e7" stroke="#e7e7e7"></path>
        <path d="M374 364L362 424L430 400Z" fill="#e9e9e9" stroke="#e9e9e9"></path>
        <path d="M426 222L406 197L344 243Z" fill="#fafafa" stroke="#fafafa"></path>
        <path d="M475 305L480 238L432 314Z" fill="#e9e9e9" stroke="#e9e9e9"></path>
        <path d="M426 222L463 172L406 197Z" fill="#ededed" stroke="#ededed"></path>
        <path d="M430 400L494 370L418 339Z" fill="#f3f3f3" stroke="#f3f3f3"></path>
        <path d="M475 305L547 246L480 238Z" fill="#ededed" stroke="#ededed"></path>
        <path d="M299 349L362 424L374 364Z" fill="#f6f6f6" stroke="#f6f6f6"></path>
        <path d="M406 197L339 200L344 243Z" fill="#ebebeb" stroke="#ebebeb"></path>
        <path d="M344 243L304 225L313 286Z" fill="#f8f8f8" stroke="#f8f8f8"></path>
        <path d="M339 200L304 225L344 243Z" fill="#e5e5e5" stroke="#e5e5e5"></path>
        <path d="M313 286L230 309L299 349Z" fill="#f1f1f1" stroke="#f1f1f1"></path>
        <path d="M430 400L482 415L494 370Z" fill="#e7e7e7" stroke="#e7e7e7"></path>
        <path d="M428 464L482 415L430 400Z" fill="#efefef" stroke="#efefef"></path>
        <path d="M536 370L542 316L494 370Z" fill="#e5e5e5" stroke="#e5e5e5"></path>
        <path d="M494 370L542 316L475 305Z" fill="#f1f1f1" stroke="#f1f1f1"></path>
        <path d="M546 194L463 172L480 238Z" fill="#efefef" stroke="#efefef"></path>
        <path d="M480 238L463 172L426 222Z" fill="#f8f8f8" stroke="#f8f8f8"></path>
        <path d="M304 104L285 162L339 200Z" fill="#ebebeb" stroke="#ebebeb"></path>
        <path d="M482 415L536 370L494 370Z" fill="#e5e5e5" stroke="#e5e5e5"></path>
        <path d="M362 424L428 464L430 400Z" fill="#e9e9e9" stroke="#e9e9e9"></path>
        <path d="M482 415L549 433L536 370Z" fill="#efefef" stroke="#efefef"></path>
        <path d="M222 236L230 309L313 286Z" fill="#fafafa" stroke="#fafafa"></path>
        <path d="M299 349L279 425L362 424Z" fill="#ededed" stroke="#ededed"></path>
        <path d="M230 309L239 363L299 349Z" fill="#f1f1f1" stroke="#f1f1f1"></path>
        <path d="M362 424L368 469L428 464Z" fill="#f3f3f3" stroke="#f3f3f3"></path>
        <path d="M239 363L279 425L299 349Z" fill="#f3f3f3" stroke="#f3f3f3"></path>
        <path d="M309 489L368 469L362 424Z" fill="#e9e9e9" stroke="#e9e9e9"></path>
        <path d="M542 316L547 246L475 305Z" fill="#ededed" stroke="#ededed"></path>
        <path d="M378 103L339 200L406 197Z" fill="#f8f8f8" stroke="#f8f8f8"></path>
        <path d="M339 200L285 162L304 225Z" fill="#fafafa" stroke="#fafafa"></path>
        <path d="M304 225L222 236L313 286Z" fill="#e5e5e5" stroke="#e5e5e5"></path>
        <path d="M241 163L222 236L304 225Z" fill="#f8f8f8" stroke="#f8f8f8"></path>
        <path d="M431 525L470 479L428 464Z" fill="#ededed" stroke="#ededed"></path>
        <path d="M428 464L470 479L482 415Z" fill="#f6f6f6" stroke="#f6f6f6"></path>
        <path d="M547 246L546 194L480 238Z" fill="#ebebeb" stroke="#ebebeb"></path>
        <path d="M476 105L425 119L463 172Z" fill="#ededed" stroke="#ededed"></path>
        <path d="M463 172L425 119L406 197Z" fill="#ededed" stroke="#ededed"></path>
        <path d="M234 436L309 489L279 425Z" fill="#ebebeb" stroke="#ebebeb"></path>
        <path d="M279 425L309 489L362 424Z" fill="#efefef" stroke="#efefef"></path>
        <path d="M368 469L431 525L428 464Z" fill="#e9e9e9" stroke="#e9e9e9"></path>
        <path d="M540 468L549 433L482 415Z" fill="#ebebeb" stroke="#ebebeb"></path>
        <path d="M616 297L586 247L542 316Z" fill="#ededed" stroke="#ededed"></path>
        <path d="M542 316L586 247L547 246Z" fill="#ebebeb" stroke="#ebebeb"></path>
        <path d="M180 408L234 436L239 363Z" fill="#ebebeb" stroke="#ebebeb"></path>
        <path d="M239 363L234 436L279 425Z" fill="#e9e9e9" stroke="#e9e9e9"></path>
        <path d="M160 356L239 363L230 309Z" fill="#ebebeb" stroke="#ebebeb"></path>
        <path d="M596 357L542 316L536 370Z" fill="#e5e5e5" stroke="#e5e5e5"></path>
        <path d="M547 246L586 247L546 194Z" fill="#ebebeb" stroke="#ebebeb"></path>
        <path d="M425 119L378 103L406 197Z" fill="#e9e9e9" stroke="#e9e9e9"></path>
        <path d="M285 162L241 163L304 225Z" fill="#fafafa" stroke="#fafafa"></path>
        <path d="M231 99L241 163L285 162Z" fill="#efefef" stroke="#efefef"></path>
        <path d="M612 413L596 357L536 370Z" fill="#e7e7e7" stroke="#e7e7e7"></path>
        <path d="M470 479L540 468L482 415Z" fill="#efefef" stroke="#efefef"></path>
        <path d="M549 433L612 413L536 370Z" fill="#fafafa" stroke="#fafafa"></path>
        <path d="M546 194L476 105L463 172Z" fill="#e9e9e9" stroke="#e9e9e9"></path>
        <path d="M425 119L420 74L378 103Z" fill="#f6f6f6" stroke="#f6f6f6"></path>
        <path d="M360 533L431 525L368 469Z" fill="#fafafa" stroke="#fafafa"></path>
        <path d="M470 479L491 553L540 468Z" fill="#ebebeb" stroke="#ebebeb"></path>
        <path d="M378 103L304 104L339 200Z" fill="#fafafa" stroke="#fafafa"></path>
        <path d="M596 357L616 297L542 316Z" fill="#f8f8f8" stroke="#f8f8f8"></path>
        <path d="M285 530L360 533L309 489Z" fill="#f1f1f1" stroke="#f1f1f1"></path>
        <path d="M309 489L360 533L368 469Z" fill="#f3f3f3" stroke="#f3f3f3"></path>
        <path d="M171 238L230 309L222 236Z" fill="#efefef" stroke="#efefef"></path>
        <path d="M171 238L161 308L230 309Z" fill="#f3f3f3" stroke="#f3f3f3"></path>
        <path d="M171 165L171 238L222 236Z" fill="#e7e7e7" stroke="#e7e7e7"></path>
        <path d="M160 356L180 408L239 363Z" fill="#f6f6f6" stroke="#f6f6f6"></path>
        <path d="M219 500L285 530L309 489Z" fill="#e9e9e9" stroke="#e9e9e9"></path>
        <path d="M460 72L420 74L425 119Z" fill="#e7e7e7" stroke="#e7e7e7"></path>
        <path d="M378 103L341 71L304 104Z" fill="#f8f8f8" stroke="#f8f8f8"></path>
        <path d="M161 308L160 356L230 309Z" fill="#fafafa" stroke="#fafafa"></path>
        <path d="M420 74L341 71L378 103Z" fill="#f1f1f1" stroke="#f1f1f1"></path>
        <path d="M608 476L612 413L549 433Z" fill="#e9e9e9" stroke="#e9e9e9"></path>
        <path d="M596 357L652 319L616 297Z" fill="#e9e9e9" stroke="#e9e9e9"></path>
        <path d="M548 61L460 72L476 105Z" fill="#e9e9e9" stroke="#e9e9e9"></path>
        <path d="M476 105L460 72L425 119Z" fill="#f8f8f8" stroke="#f8f8f8"></path>
        <path d="M368 0L302 40L341 71Z" fill="#e5e5e5" stroke="#e5e5e5"></path>
        <path d="M557 100L476 105L546 194Z" fill="#f1f1f1" stroke="#f1f1f1"></path>
        <path d="M219 500L309 489L234 436Z" fill="#f3f3f3" stroke="#f3f3f3"></path>
        <path d="M648 248L603 177L586 247Z" fill="#e9e9e9" stroke="#e9e9e9"></path>
        <path d="M586 247L603 177L546 194Z" fill="#e5e5e5" stroke="#e5e5e5"></path>
        <path d="M117 477L199 474L180 408Z" fill="#efefef" stroke="#efefef"></path>
        <path d="M180 408L199 474L234 436Z" fill="#f3f3f3" stroke="#f3f3f3"></path>
        <path d="M199 474L219 500L234 436Z" fill="#e5e5e5" stroke="#e5e5e5"></path>
        <path d="M612 413L643 375L596 357Z" fill="#fafafa" stroke="#fafafa"></path>
        <path d="M616 297L648 248L586 247Z" fill="#f3f3f3" stroke="#f3f3f3"></path>
        <path d="M643 375L652 319L596 357Z" fill="#ebebeb" stroke="#ebebeb"></path>
        <path d="M231 99L171 165L241 163Z" fill="#e9e9e9" stroke="#e9e9e9"></path>
        <path d="M241 163L171 165L222 236Z" fill="#f6f6f6" stroke="#f6f6f6"></path>
        <path d="M105 319L130 355L161 308Z" fill="#f3f3f3" stroke="#f3f3f3"></path>
        <path d="M231 99L285 162L304 104Z" fill="#f3f3f3" stroke="#f3f3f3"></path>
        <path d="M652 319L648 248L616 297Z" fill="#f1f1f1" stroke="#f1f1f1"></path>
        <path d="M248 52L231 99L304 104Z" fill="#f1f1f1" stroke="#f1f1f1"></path>
        <path d="M412 600L491 553L431 525Z" fill="#efefef" stroke="#efefef"></path>
        <path d="M431 525L491 553L470 479Z" fill="#efefef" stroke="#efefef"></path>
        <path d="M540 468L608 476L549 433Z" fill="#f6f6f6" stroke="#f6f6f6"></path>
        <path d="M412 600L431 525L360 533Z" fill="#ededed" stroke="#ededed"></path>
        <path d="M594 131L546 194L603 177Z" fill="#f6f6f6" stroke="#f6f6f6"></path>
        <path d="M594 131L557 100L546 194Z" fill="#ebebeb" stroke="#ebebeb"></path>
        <path d="M161 308L130 355L160 356Z" fill="#fafafa" stroke="#fafafa"></path>
        <path d="M160 356L140 399L180 408Z" fill="#e5e5e5" stroke="#e5e5e5"></path>
        <path d="M128 235L161 308L171 238Z" fill="#e7e7e7" stroke="#e7e7e7"></path>
        <path d="M130 355L140 399L160 356Z" fill="#e7e7e7" stroke="#e7e7e7"></path>
        <path d="M194 543L240 543L219 500Z" fill="#f1f1f1" stroke="#f1f1f1"></path>
        <path d="M657 130L594 131L603 177Z" fill="#f3f3f3" stroke="#f3f3f3"></path>
        <path d="M171 165L128 235L171 238Z" fill="#f1f1f1" stroke="#f1f1f1"></path>
        <path d="M584 533L608 476L540 468Z" fill="#fafafa" stroke="#fafafa"></path>
        <path d="M612 413L669 438L643 375Z" fill="#f1f1f1" stroke="#f1f1f1"></path>
        <path d="M219 500L240 543L285 530Z" fill="#f6f6f6" stroke="#f6f6f6"></path>
        <path d="M357 600L412 600L360 533Z" fill="#f8f8f8" stroke="#f8f8f8"></path>
        <path d="M194 543L219 500L199 474Z" fill="#ebebeb" stroke="#ebebeb"></path>
        <path d="M368 0L341 71L420 74Z" fill="#f6f6f6" stroke="#f6f6f6"></path>
        <path d="M341 71L302 40L304 104Z" fill="#ebebeb" stroke="#ebebeb"></path>
        <path d="M130 355L56 416L140 399Z" fill="#f3f3f3" stroke="#f3f3f3"></path>
        <path d="M128 235L105 319L161 308Z" fill="#f8f8f8" stroke="#f8f8f8"></path>
        <path d="M491 553L540 554L540 468Z" fill="#efefef" stroke="#efefef"></path>
        <path d="M557 100L548 61L476 105Z" fill="#f6f6f6" stroke="#f6f6f6"></path>
        <path d="M466 0L401 0L420 74Z" fill="#e7e7e7" stroke="#e7e7e7"></path>
        <path d="M592 75L548 61L557 100Z" fill="#ededed" stroke="#ededed"></path>
        <path d="M357 600L360 533L286 600Z" fill="#f8f8f8" stroke="#f8f8f8"></path>
        <path d="M491 553L486 600L540 554Z" fill="#f8f8f8" stroke="#f8f8f8"></path>
        <path d="M302 40L248 52L304 104Z" fill="#f3f3f3" stroke="#f3f3f3"></path>
        <path d="M231 99L168 109L171 165Z" fill="#f6f6f6" stroke="#f6f6f6"></path>
        <path d="M286 600L360 533L285 530Z" fill="#ebebeb" stroke="#ebebeb"></path>
        <path d="M540 554L584 533L540 468Z" fill="#efefef" stroke="#efefef"></path>
        <path d="M162 44L168 109L231 99Z" fill="#e5e5e5" stroke="#e5e5e5"></path>
        <path d="M171 165L110 177L128 235Z" fill="#e7e7e7" stroke="#e7e7e7"></path>
        <path d="M648 248L658 168L603 177Z" fill="#f1f1f1" stroke="#f1f1f1"></path>
        <path d="M594 131L592 75L557 100Z" fill="#ededed" stroke="#ededed"></path>
        <path d="M702 169L658 168L724 225Z" fill="#e5e5e5" stroke="#e5e5e5"></path>
        <path d="M646 492L669 438L608 476Z" fill="#fafafa" stroke="#fafafa"></path>
        <path d="M608 476L669 438L612 413Z" fill="#fafafa" stroke="#fafafa"></path>
        <path d="M643 375L727 354L652 319Z" fill="#f6f6f6" stroke="#f6f6f6"></path>
        <path d="M652 319L731 285L648 248Z" fill="#ededed" stroke="#ededed"></path>
        <path d="M412 600L486 600L491 553Z" fill="#e9e9e9" stroke="#e9e9e9"></path>
        <path d="M540 554L547 600L584 533Z" fill="#ebebeb" stroke="#ebebeb"></path>
        <path d="M657 130L592 75L594 131Z" fill="#ebebeb" stroke="#ebebeb"></path>
        <path d="M117 477L180 408L140 399Z" fill="#ededed" stroke="#ededed"></path>
        <path d="M117 477L194 543L199 474Z" fill="#e5e5e5" stroke="#e5e5e5"></path>
        <path d="M240 543L286 600L285 530Z" fill="#f8f8f8" stroke="#f8f8f8"></path>
        <path d="M466 0L460 72L528 0Z" fill="#f1f1f1" stroke="#f1f1f1"></path>
        <path d="M466 0L420 74L460 72Z" fill="#f6f6f6" stroke="#f6f6f6"></path>
        <path d="M302 40L243 0L248 52Z" fill="#e5e5e5" stroke="#e5e5e5"></path>
        <path d="M401 0L368 0L420 74Z" fill="#e5e5e5" stroke="#e5e5e5"></path>
        <path d="M168 109L133 138L171 165Z" fill="#fafafa" stroke="#fafafa"></path>
        <path d="M128 235L46 251L105 319Z" fill="#e9e9e9" stroke="#e9e9e9"></path>
        <path d="M133 138L110 177L171 165Z" fill="#f3f3f3" stroke="#f3f3f3"></path>
        <path d="M226 600L286 600L240 543Z" fill="#e9e9e9" stroke="#e9e9e9"></path>
        <path d="M671 550L646 492L584 533Z" fill="#fafafa" stroke="#fafafa"></path>
        <path d="M584 533L646 492L608 476Z" fill="#fafafa" stroke="#fafafa"></path>
        <path d="M528 0L460 72L548 61Z" fill="#ededed" stroke="#ededed"></path>
        <path d="M368 0L311 0L302 40Z" fill="#efefef" stroke="#efefef"></path>
        <path d="M248 52L162 44L231 99Z" fill="#fafafa" stroke="#fafafa"></path>
        <path d="M658 168L657 130L603 177Z" fill="#efefef" stroke="#efefef"></path>
        <path d="M702 169L657 130L658 168Z" fill="#fafafa" stroke="#fafafa"></path>
        <path d="M56 416L117 477L140 399Z" fill="#ededed" stroke="#ededed"></path>
        <path d="M486 600L547 600L540 554Z" fill="#efefef" stroke="#efefef"></path>
        <path d="M730 474L702 428L669 438Z" fill="#ebebeb" stroke="#ebebeb"></path>
        <path d="M669 438L702 428L643 375Z" fill="#e7e7e7" stroke="#e7e7e7"></path>
        <path d="M194 543L226 600L240 543Z" fill="#efefef" stroke="#efefef"></path>
        <path d="M197 600L226 600L194 543Z" fill="#e5e5e5" stroke="#e5e5e5"></path>
        <path d="M600 0L528 0L548 61Z" fill="#f8f8f8" stroke="#f8f8f8"></path>
        <path d="M600 0L548 61L592 75Z" fill="#f1f1f1" stroke="#f1f1f1"></path>
        <path d="M702 428L727 354L643 375Z" fill="#f8f8f8" stroke="#f8f8f8"></path>
        <path d="M724 225L658 168L648 248Z" fill="#f6f6f6" stroke="#f6f6f6"></path>
        <path d="M657 130L664 79L592 75Z" fill="#ebebeb" stroke="#ebebeb"></path>
        <path d="M727 354L731 285L652 319Z" fill="#fafafa" stroke="#fafafa"></path>
        <path d="M311 0L243 0L302 40Z" fill="#f1f1f1" stroke="#f1f1f1"></path>
        <path d="M168 109L110 47L133 138Z" fill="#fafafa" stroke="#fafafa"></path>
        <path d="M731 285L724 225L648 248Z" fill="#e5e5e5" stroke="#e5e5e5"></path>
        <path d="M64 137L110 177L133 138Z" fill="#ededed" stroke="#ededed"></path>
        <path d="M64 137L71 181L110 177Z" fill="#e5e5e5" stroke="#e5e5e5"></path>
        <path d="M110 177L71 181L128 235Z" fill="#e9e9e9" stroke="#e9e9e9"></path>
        <path d="M41 364L56 416L130 355Z" fill="#fafafa" stroke="#fafafa"></path>
        <path d="M196 0L162 44L248 52Z" fill="#f6f6f6" stroke="#f6f6f6"></path>
        <path d="M71 181L46 251L128 235Z" fill="#e7e7e7" stroke="#e7e7e7"></path>
        <path d="M129 600L197 600L194 543Z" fill="#e7e7e7" stroke="#e7e7e7"></path>
        <path d="M41 364L130 355L105 319Z" fill="#fafafa" stroke="#fafafa"></path>
        <path d="M117 477L107 536L194 543Z" fill="#e9e9e9" stroke="#e9e9e9"></path>
        <path d="M46 251L39 311L105 319Z" fill="#efefef" stroke="#efefef"></path>
        <path d="M39 311L41 364L105 319Z" fill="#ebebeb" stroke="#ebebeb"></path>
        <path d="M711 140L664 79L657 130Z" fill="#efefef" stroke="#efefef"></path>
        <path d="M795 175L711 140L702 169Z" fill="#f3f3f3" stroke="#f3f3f3"></path>
        <path d="M702 169L711 140L657 130Z" fill="#f8f8f8" stroke="#f8f8f8"></path>
        <path d="M243 0L196 0L248 52Z" fill="#e7e7e7" stroke="#e7e7e7"></path>
        <path d="M45 494L107 536L117 477Z" fill="#e9e9e9" stroke="#e9e9e9"></path>
        <path d="M547 600L614 600L584 533Z" fill="#f1f1f1" stroke="#f1f1f1"></path>
        <path d="M646 492L730 474L669 438Z" fill="#e7e7e7" stroke="#e7e7e7"></path>
        <path d="M110 47L168 109L162 44Z" fill="#f1f1f1" stroke="#f1f1f1"></path>
        <path d="M110 47L64 137L133 138Z" fill="#efefef" stroke="#efefef"></path>
        <path d="M0 177L0 249L46 251Z" fill="#f8f8f8" stroke="#f8f8f8"></path>
        <path d="M614 600L671 550L584 533Z" fill="#f8f8f8" stroke="#f8f8f8"></path>
        <path d="M780 401L761 349L727 354Z" fill="#efefef" stroke="#efefef"></path>
        <path d="M780 401L727 354L702 428Z" fill="#f3f3f3" stroke="#f3f3f3"></path>
        <path d="M727 354L761 349L731 285Z" fill="#f3f3f3" stroke="#f3f3f3"></path>
        <path d="M731 285L775 252L724 225Z" fill="#e7e7e7" stroke="#e7e7e7"></path>
        <path d="M795 175L759 103L711 140Z" fill="#e9e9e9" stroke="#e9e9e9"></path>
        <path d="M646 0L600 0L592 75Z" fill="#f6f6f6" stroke="#f6f6f6"></path>
        <path d="M671 550L730 474L646 492Z" fill="#f3f3f3" stroke="#f3f3f3"></path>
        <path d="M129 0L110 47L162 44Z" fill="#ebebeb" stroke="#ebebeb"></path>
        <path d="M789 283L775 252L731 285Z" fill="#e7e7e7" stroke="#e7e7e7"></path>
        <path d="M0 249L0 307L46 251Z" fill="#f3f3f3" stroke="#f3f3f3"></path>
        <path d="M46 251L0 307L39 311Z" fill="#f1f1f1" stroke="#f1f1f1"></path>
        <path d="M39 311L0 351L41 364Z" fill="#fafafa" stroke="#fafafa"></path>
        <path d="M0 463L45 494L56 416Z" fill="#fafafa" stroke="#fafafa"></path>
        <path d="M53 600L129 600L107 536Z" fill="#e9e9e9" stroke="#e9e9e9"></path>
        <path d="M45 494L117 477L56 416Z" fill="#ebebeb" stroke="#ebebeb"></path>
        <path d="M107 536L129 600L194 543Z" fill="#e7e7e7" stroke="#e7e7e7"></path>
        <path d="M0 416L56 416L41 364Z" fill="#fafafa" stroke="#fafafa"></path>
        <path d="M711 140L699 62L664 79Z" fill="#efefef" stroke="#efefef"></path>
        <path d="M664 79L646 0L592 75Z" fill="#f8f8f8" stroke="#f8f8f8"></path>
        <path d="M759 103L699 62L711 140Z" fill="#ededed" stroke="#ededed"></path>
        <path d="M0 307L0 351L39 311Z" fill="#f6f6f6" stroke="#f6f6f6"></path>
        <path d="M0 177L46 251L71 181Z" fill="#e7e7e7" stroke="#e7e7e7"></path>
        <path d="M0 177L71 181L64 137Z" fill="#ebebeb" stroke="#ebebeb"></path>
        <path d="M761 349L789 283L731 285Z" fill="#e5e5e5" stroke="#e5e5e5"></path>
        <path d="M795 175L702 169L724 225Z" fill="#e9e9e9" stroke="#e9e9e9"></path>
        <path d="M822 343L789 283L761 349Z" fill="#f6f6f6" stroke="#f6f6f6"></path>
        <path d="M699 62L646 0L664 79Z" fill="#f3f3f3" stroke="#f3f3f3"></path>
        <path d="M730 474L780 401L702 428Z" fill="#fafafa" stroke="#fafafa"></path>
        <path d="M196 0L129 0L162 44Z" fill="#f3f3f3" stroke="#f3f3f3"></path>
        <path d="M0 105L0 177L64 137Z" fill="#fafafa" stroke="#fafafa"></path>
        <path d="M0 351L0 416L41 364Z" fill="#fafafa" stroke="#fafafa"></path>
        <path d="M736 560L773 490L730 474Z" fill="#e5e5e5" stroke="#e5e5e5"></path>
        <path d="M730 474L773 490L780 401Z" fill="#f1f1f1" stroke="#f1f1f1"></path>
        <path d="M614 600L676 600L671 550Z" fill="#ededed" stroke="#ededed"></path>
        <path d="M59 40L64 137L110 47Z" fill="#ebebeb" stroke="#ebebeb"></path>
        <path d="M0 528L43 541L45 494Z" fill="#efefef" stroke="#efefef"></path>
        <path d="M45 494L43 541L107 536Z" fill="#efefef" stroke="#efefef"></path>
        <path d="M795 175L724 225L775 252Z" fill="#f8f8f8" stroke="#f8f8f8"></path>
        <path d="M699 62L725 0L646 0Z" fill="#f6f6f6" stroke="#f6f6f6"></path>
        <path d="M0 416L0 463L56 416Z" fill="#fafafa" stroke="#fafafa"></path>
        <path d="M736 560L730 474L671 550Z" fill="#f3f3f3" stroke="#f3f3f3"></path>
        <path d="M835 236L795 175L775 252Z" fill="#f6f6f6" stroke="#f6f6f6"></path>
        <path d="M676 600L736 560L671 550Z" fill="#f1f1f1" stroke="#f1f1f1"></path>
        <path d="M129 0L59 40L110 47Z" fill="#f6f6f6" stroke="#f6f6f6"></path>
        <path d="M855 406L822 343L780 401Z" fill="#f6f6f6" stroke="#f6f6f6"></path>
        <path d="M780 401L822 343L761 349Z" fill="#efefef" stroke="#efefef"></path>
        <path d="M789 283L835 236L775 252Z" fill="#e7e7e7" stroke="#e7e7e7"></path>
        <path d="M59 40L0 105L64 137Z" fill="#fafafa" stroke="#fafafa"></path>
        <path d="M822 343L833 279L789 283Z" fill="#ebebeb" stroke="#ebebeb"></path>
        <path d="M0 600L53 600L43 541Z" fill="#ededed" stroke="#ededed"></path>
        <path d="M43 541L53 600L107 536Z" fill="#ededed" stroke="#ededed"></path>
        <path d="M736 560L788 519L773 490Z" fill="#f3f3f3" stroke="#f3f3f3"></path>
        <path d="M773 490L824 496L780 401Z" fill="#f1f1f1" stroke="#f1f1f1"></path>
        <path d="M833 279L835 236L789 283Z" fill="#efefef" stroke="#efefef"></path>
        <path d="M765 47L699 62L759 103Z" fill="#ebebeb" stroke="#ebebeb"></path>
        <path d="M0 463L0 528L45 494Z" fill="#e7e7e7" stroke="#e7e7e7"></path>
        <path d="M765 47L759 103L825 70Z" fill="#f1f1f1" stroke="#f1f1f1"></path>
        <path d="M765 47L725 0L699 62Z" fill="#e9e9e9" stroke="#e9e9e9"></path>
        <path d="M676 600L739 600L736 560Z" fill="#f6f6f6" stroke="#f6f6f6"></path>
        <path d="M736 560L786 600L788 519Z" fill="#efefef" stroke="#efefef"></path>
        <path d="M832 136L759 103L795 175Z" fill="#e9e9e9" stroke="#e9e9e9"></path>
        <path d="M0 0L0 71L59 40Z" fill="#e5e5e5" stroke="#e5e5e5"></path>
        <path d="M59 40L0 71L0 105Z" fill="#f3f3f3" stroke="#f3f3f3"></path>
        <path d="M129 0L44 0L59 40Z" fill="#f8f8f8" stroke="#f8f8f8"></path>
        <path d="M848 560L824 496L788 519Z" fill="#e5e5e5" stroke="#e5e5e5"></path>
        <path d="M788 519L824 496L773 490Z" fill="#f1f1f1" stroke="#f1f1f1"></path>
        <path d="M822 343L900 304L833 279Z" fill="#fafafa" stroke="#fafafa"></path>
        <path d="M900 240L852 165L835 236Z" fill="#e7e7e7" stroke="#e7e7e7"></path>
        <path d="M852 165L832 136L795 175Z" fill="#e7e7e7" stroke="#e7e7e7"></path>
        <path d="M824 496L855 406L780 401Z" fill="#f1f1f1" stroke="#f1f1f1"></path>
        <path d="M835 236L852 165L795 175Z" fill="#f6f6f6" stroke="#f6f6f6"></path>
        <path d="M900 240L835 236L833 279Z" fill="#f1f1f1" stroke="#f1f1f1"></path>
        <path d="M0 528L0 600L43 541Z" fill="#f3f3f3" stroke="#f3f3f3"></path>
        <path d="M739 600L786 600L736 560Z" fill="#ededed" stroke="#ededed"></path>
        <path d="M832 136L825 70L759 103Z" fill="#f6f6f6" stroke="#f6f6f6"></path>
        <path d="M765 47L786 0L725 0Z" fill="#f1f1f1" stroke="#f1f1f1"></path>
        <path d="M900 113L825 70L832 136Z" fill="#f8f8f8" stroke="#f8f8f8"></path>
        <path d="M44 0L0 0L59 40Z" fill="#f1f1f1" stroke="#f1f1f1"></path>
        <path d="M825 70L786 0L765 47Z" fill="#efefef" stroke="#efefef"></path>
        <path d="M900 344L900 304L822 343Z" fill="#efefef" stroke="#efefef"></path>
        <path d="M852 165L900 113L832 136Z" fill="#ededed" stroke="#ededed"></path>
        <path d="M900 344L822 343L855 406Z" fill="#f8f8f8" stroke="#f8f8f8"></path>
        <path d="M900 344L855 406L900 424Z" fill="#f6f6f6" stroke="#f6f6f6"></path>
        <path d="M900 424L855 406L900 461Z" fill="#f8f8f8" stroke="#f8f8f8"></path>
        <path d="M900 304L900 240L833 279Z" fill="#f6f6f6" stroke="#f6f6f6"></path>
        <path d="M786 600L848 560L788 519Z" fill="#f8f8f8" stroke="#f8f8f8"></path>
        <path d="M900 461L855 406L824 496Z" fill="#f1f1f1" stroke="#f1f1f1"></path>
        <path d="M786 600L826 600L848 560Z" fill="#e7e7e7" stroke="#e7e7e7"></path>
        <path d="M900 240L900 173L852 165Z" fill="#e7e7e7" stroke="#e7e7e7"></path>
        <path d="M825 70L850 0L786 0Z" fill="#e7e7e7" stroke="#e7e7e7"></path>
        <path d="M900 544L900 461L824 496Z" fill="#fafafa" stroke="#fafafa"></path>
        <path d="M900 173L900 113L852 165Z" fill="#e9e9e9" stroke="#e9e9e9"></path>
        <path d="M900 76L850 0L825 70Z" fill="#f3f3f3" stroke="#f3f3f3"></path>
        <path d="M900 113L900 76L825 70Z" fill="#f6f6f6" stroke="#f6f6f6"></path>
        <path d="M900 600L900 544L848 560Z" fill="#f8f8f8" stroke="#f8f8f8"></path>
        <path d="M848 560L900 544L824 496Z" fill="#f3f3f3" stroke="#f3f3f3"></path>
        <path d="M826 600L900 600L848 560Z" fill="#f1f1f1" stroke="#f1f1f1"></path>
        <path d="M900 76L900 0L850 0Z" fill="#f6f6f6" stroke="#f6f6f6"></path>
    </g>
</svg>